<?xml version="1.0" encoding="UTF-8" standalone="no"?>
<!DOCTYPE svg PUBLIC "-//W3C//DTD SVG 1.1//EN" "http://www.w3.org/Graphics/SVG/1.1/DTD/svg11.dtd">
<svg width="100%" height="100%" viewBox="0 0 240 240" version="1.1" xmlns="http://www.w3.org/2000/svg" xmlns:xlink="http://www.w3.org/1999/xlink" xml:space="preserve" xmlns:serif="http://www.serif.com/" style="fill-rule:evenodd;clip-rule:evenodd;stroke-linecap:round;stroke-linejoin:round;stroke-miterlimit:1.5;">
    <g id="HeadAccessoryGroup">
        <circle id="headAccessMatingPin" cx="120.018" cy="216.176" r="2.591" style="fill:#ebebeb;"/>
        <path d="M21.462,219.138C32.528,138.088 74.607,77.71 124.765,77.71C174.922,77.71 217.001,138.088 228.067,219.138L21.462,219.138Z" style="fill:#133371;"/>
        <path d="M26.69,203.792C26.69,203.792 32.645,169.662 49.202,137.767C63.199,110.806 85.32,85.724 112.201,81.333" style="fill:none;stroke:#011d51;stroke-width:4.5px;"/>
        <path d="M238.257,212.173C238.257,201.691 225.96,197.394 218.548,204.806L22.991,204.806C15.579,197.394 4.715,201.691 4.715,212.173L4.715,213.99C4.715,224.472 12.508,239.309 22.991,239.309L218.548,239.309C229.03,239.309 238.257,224.472 238.257,213.99L238.257,212.173Z" style="fill:#fff;"/>
        <path d="M27.981,206.007C27.981,206.007 21.081,223.853 27.61,235.323" style="fill:none;stroke:#aeaeae;stroke-width:1px;"/>
        <path d="M215.022,206.632C215.022,206.632 219.204,228.517 214.812,234.204" style="fill:none;stroke:#aeaeae;stroke-width:1px;"/>
        <path d="M202.852,206.632C202.852,206.632 207.033,228.517 202.642,234.204" style="fill:none;stroke:#aeaeae;stroke-width:1px;"/>
        <path d="M190.013,206.632C190.013,206.632 194.195,228.517 189.804,234.204" style="fill:none;stroke:#aeaeae;stroke-width:1px;"/>
        <path d="M174.405,206.632C174.405,206.632 178.587,228.517 174.196,234.204" style="fill:none;stroke:#aeaeae;stroke-width:1px;"/>
        <path d="M159.532,206.632C159.532,206.632 163.713,228.517 159.322,234.204" style="fill:none;stroke:#aeaeae;stroke-width:1px;"/>
        <path d="M144.087,206.632C144.087,206.632 148.269,228.517 143.877,234.204" style="fill:none;stroke:#aeaeae;stroke-width:1px;"/>
        <path d="M132.594,206.632C132.594,206.632 136.775,228.517 132.384,234.204" style="fill:none;stroke:#aeaeae;stroke-width:1px;"/>
        <path d="M202.852,206.632C202.852,206.632 207.033,228.517 202.642,234.204" style="fill:none;stroke:#aeaeae;stroke-width:1px;"/>
        <path d="M49.16,206.157C49.16,206.157 44.945,225.268 47.813,233.096" style="fill:none;stroke:#aeaeae;stroke-width:1px;"/>
        <path d="M67.49,206.157C67.49,206.157 63.275,225.268 66.143,233.096" style="fill:none;stroke:#aeaeae;stroke-width:1px;"/>
        <path d="M86.215,206.656C86.215,206.656 80.281,231.202 85.299,234.263" style="fill:none;stroke:#aeaeae;stroke-width:1px;"/>
        <path d="M101.546,206.189C101.546,206.189 95.612,230.735 100.629,233.796" style="fill:none;stroke:#aeaeae;stroke-width:1px;"/>
        <path d="M116.934,206.189C116.934,206.189 111,230.735 116.018,233.796" style="fill:none;stroke:#aeaeae;stroke-width:1px;"/>
        <circle cx="125.758" cy="75.36" r="14.422" style="fill:#fff;"/>
        <g id="snowflake">
            <path d="M156.228,120.241L152.314,116.327L94.214,174.427L98.128,178.341L156.228,120.241Z" style="fill:#fff;"/>
            <rect x="122.454" y="106.251" width="5.535" height="82.166" style="fill:#fff;"/>
            <path d="M98.128,116.327L94.214,120.241L152.314,178.341L156.228,174.427L98.128,116.327Z" style="fill:#fff;"/>
            <path d="M84.138,144.566L84.138,150.101L166.304,150.101L166.304,144.566L84.138,144.566Z" style="fill:#fff;"/>
            <g>
                <rect x="151.798" y="108.02" width="3.489" height="11.885" style="fill:#fff;"/>
                <path d="M165.243,117.972L164.34,114.601L152.86,117.677L153.763,121.048L165.243,117.972Z" style="fill:#fff;"/>
                <path d="M161.627,112.381L158.97,110.12L151.269,119.172L153.926,121.433L161.627,112.381Z" style="fill:#fff;"/>
            </g>
            <g>
                <path d="M119.119,98.202L116.652,100.669L125.056,109.073L127.523,106.605L119.119,98.202Z" style="fill:#fff;"/>
                <path d="M133.196,98.198L130.174,96.454L124.232,106.746L127.254,108.491L133.196,98.198Z" style="fill:#fff;"/>
                <path d="M126.686,96.801L123.208,97.082L124.163,108.928L127.641,108.648L126.686,96.801Z" style="fill:#fff;"/>
            </g>
            <g>
                <path d="M86.602,116.833L86.602,120.322L98.487,120.322L98.487,116.833L86.602,116.833Z" style="fill:#fff;"/>
                <path d="M96.553,106.877L93.183,107.78L96.259,119.26L99.629,118.357L96.553,106.877Z" style="fill:#fff;"/>
                <path d="M90.962,110.492L88.702,113.15L97.754,120.851L100.015,118.193L90.962,110.492Z" style="fill:#fff;"/>
            </g>
            <g>
                <path d="M76.783,153L79.25,155.468L87.654,147.064L85.187,144.597L76.783,153Z" style="fill:#fff;"/>
                <path d="M76.78,138.924L75.035,141.945L85.328,147.888L87.072,144.866L76.78,138.924Z" style="fill:#fff;"/>
                <path d="M75.383,145.434L75.663,148.911L87.51,147.956L87.229,144.478L75.383,145.434Z" style="fill:#fff;"/>
            </g>
            <g>
                <rect x="95.414" y="173.633" width="3.489" height="11.885" style="fill:#fff;"/>
                <path d="M85.458,175.566L86.361,178.937L97.841,175.861L96.938,172.49L85.458,175.566Z" style="fill:#fff;"/>
                <path d="M89.074,181.157L91.731,183.418L99.433,174.366L96.775,172.105L89.074,181.157Z" style="fill:#fff;"/>
            </g>
            <g>
                <path d="M131.582,195.336L134.049,192.869L125.645,184.465L123.178,186.933L131.582,195.336Z" style="fill:#fff;"/>
                <path d="M117.505,195.34L120.527,197.084L126.469,186.792L123.448,185.047L117.505,195.34Z" style="fill:#fff;"/>
                <path d="M124.015,196.737L127.493,196.456L126.538,184.61L123.06,184.89L124.015,196.737Z" style="fill:#fff;"/>
            </g>
            <g>
                <path d="M164.099,176.705L164.099,173.216L152.214,173.216L152.214,176.705L164.099,176.705Z" style="fill:#fff;"/>
                <path d="M154.148,186.661L157.518,185.758L154.442,174.278L151.072,175.181L154.148,186.661Z" style="fill:#fff;"/>
                <path d="M159.739,183.046L162,180.388L152.948,172.687L150.687,175.345L159.739,183.046Z" style="fill:#fff;"/>
            </g>
            <g>
                <path d="M173.918,140.538L171.451,138.07L163.047,146.474L165.514,148.942L173.918,140.538Z" style="fill:#fff;"/>
                <path d="M173.921,154.614L175.666,151.593L165.373,145.65L163.629,148.672L173.921,154.614Z" style="fill:#fff;"/>
                <path d="M175.318,148.104L175.038,144.627L163.191,145.582L163.472,149.06L175.318,148.104Z" style="fill:#fff;"/>
            </g>
            <path d="M125.375,128.012L138.904,133.614L144.507,147.139L138.904,160.664L125.375,166.266L111.847,160.664L106.243,147.139L111.847,133.614L125.375,128.012Z" style="fill:none;stroke:#fff;stroke-width:4.5px;"/>
            <path d="M125.375,117.198L145.928,125.709L154.441,146.256L145.928,166.803L125.375,175.314L104.822,166.803L96.309,146.256L104.822,125.709L125.375,117.198Z" style="fill:none;stroke:#fff;stroke-width:4.5px;"/>
        </g>
    </g>
</svg>
