<?xml version="1.0" encoding="UTF-8" standalone="no"?>
<!DOCTYPE svg PUBLIC "-//W3C//DTD SVG 1.1//EN" "http://www.w3.org/Graphics/SVG/1.1/DTD/svg11.dtd">
<svg width="100%" height="100%" viewBox="0 0 240 240" version="1.1" xmlns="http://www.w3.org/2000/svg" xmlns:xlink="http://www.w3.org/1999/xlink" xml:space="preserve" xmlns:serif="http://www.serif.com/" style="fill-rule:evenodd;clip-rule:evenodd;stroke-linejoin:round;stroke-miterlimit:2;">
    <g id="HeadAccessoryGroup">
        <circle id="headAccessMatingPin" cx="120.018" cy="234.921" r="2.591" style="fill:#ebebeb;"/>
        <path id="path4850" d="M30.37,151.392C32.103,115.18 73.044,86.087 122.259,86.096C171.474,86.105 212.395,115.212 214.105,151.425" style="fill:#242934;fill-rule:nonzero;"/>
        <rect id="rect4852" x="30.38" y="151.19" width="183.74" height="67.292" style="fill:#242934;"/>
        <rect id="rect4854" x="29.844" y="181.14" width="184.276" height="37.342" style="fill:#75958c;"/>
        <path id="path4856" d="M37.548,237.488C18.036,235.476 11.429,231.667 7.374,223.906C3.318,216.145 1.815,204.434 2.322,197.291C2.828,190.148 5.343,187.573 9.669,185.822C13.995,184.07 20.135,183.141 25.789,186.236C31.443,189.331 36.615,196.451 45.927,202.214C55.239,207.976 68.691,212.381 81.791,214.822C94.89,217.263 107.382,217.732 120.736,217.731C134.09,217.73 146.193,217.249 158.751,214.815C171.309,212.381 184.761,207.976 194.073,202.214C203.385,196.451 208.557,189.331 214.211,186.236C219.865,183.141 226.005,184.07 230.51,186.308C235.014,188.545 237.886,192.09 238.537,198.915C239.187,205.74 237.617,215.845 234.195,223.086C230.773,230.326 225.501,234.7 206.475,237.029C187.449,239.359 155.188,239.638 122.077,239.674C88.966,239.71 57.061,239.499 37.548,237.488L37.548,237.488Z" style="fill:#242934;fill-rule:nonzero;"/>
        <path id="path4878" d="M171.457,98.715C177.771,102.206 179.512,105.352 175.343,105.736C171.173,106.12 162.662,103.597 156.348,100.106C150.034,96.615 148.293,93.468 152.463,93.084C156.632,92.7 165.143,95.223 171.457,98.715Z" style="fill:#fff;fill-opacity:0.4;"/>
    </g>
</svg>
