<?xml version="1.0" encoding="UTF-8" standalone="no"?>
<!DOCTYPE svg PUBLIC "-//W3C//DTD SVG 1.1//EN" "http://www.w3.org/Graphics/SVG/1.1/DTD/svg11.dtd">
<svg width="100%" height="100%" viewBox="0 0 240 240" version="1.1" xmlns="http://www.w3.org/2000/svg" xmlns:xlink="http://www.w3.org/1999/xlink" xml:space="preserve" xmlns:serif="http://www.serif.com/" style="fill-rule:evenodd;clip-rule:evenodd;stroke-linecap:round;stroke-linejoin:round;stroke-miterlimit:1.5;">
    <g id="HeadAccessoryGroup">
        <circle id="headAccessMatingPin" cx="120.018" cy="216.176" r="2.591" style="fill:#ebebeb;"/>
        <path d="M208.092,50.574C204.601,60.457 147.055,82.103 171.144,118.242C196.364,156.077 212.922,178.016 230.894,217.453L21.127,217.453C56.34,111.391 81.681,97.155 113.103,77.744C150.173,54.844 211.302,41.484 208.092,50.574Z" style="fill:#2b6a13;"/>
        <path d="M41.996,148.807L86.103,240.455L-2.111,240.455L41.996,148.807Z" style="fill:#8f1a1a;"/>
        <path d="M41.996,148.807L86.103,240.455L-2.111,240.455L41.996,148.807Z" style="fill:#8f1a1a;"/>
        <path d="M105.065,148.803L149.172,240.451L60.958,240.451L105.065,148.803Z" style="fill:#8f1a1a;"/>
        <path d="M159.882,150.437L203.989,242.086L115.774,242.086L159.882,150.437Z" style="fill:#8f1a1a;"/>
        <path d="M202.405,150.437L240.761,240.782L164.05,240.782L202.405,150.437Z" style="fill:#8f1a1a;"/>
        <g>
            <path d="M199.982,50.957C203.588,43.758 212.361,40.84 219.561,44.446C226.76,48.052 229.678,56.825 226.072,64.024C222.466,71.224 213.694,74.141 206.494,70.536C199.294,66.93 196.377,58.157 199.982,50.957Z" style="fill:#e3c666;"/>
            <path d="M226.27,48.577C226.056,48.251 225.617,48.161 225.292,48.376L200.122,64.97C199.797,65.185 199.707,65.623 199.921,65.949L200.699,67.128C200.914,67.453 201.352,67.543 201.677,67.329L226.847,50.735C227.173,50.52 227.263,50.082 227.048,49.756L226.27,48.577Z" style="fill:#a0811b;"/>
            <path d="M225.915,48.434C225.701,48.109 225.262,48.019 224.937,48.233L199.767,64.827C199.442,65.042 199.352,65.48 199.566,65.806L200.344,66.985C200.558,67.311 200.997,67.401 201.322,67.186L226.492,50.592C226.817,50.377 226.907,49.939 226.693,49.614L225.915,48.434Z" style="fill:#e3c666;"/>
            <path d="M222.079,68.419C222.079,68.419 219.929,70.2 217.654,68.664" style="fill:none;stroke:#a0811b;stroke-width:1px;"/>
            <path d="M222.432,68.156C222.432,68.156 224.712,66.544 223.821,63.947" style="fill:none;stroke:#a0811b;stroke-width:1px;"/>
            <path d="M216.092,67.681C216.36,67.147 217.011,66.93 217.546,67.198C218.081,67.466 218.297,68.117 218.03,68.652C217.762,69.187 217.11,69.403 216.575,69.136C216.041,68.868 215.824,68.216 216.092,67.681Z" style="fill:#a0811b;"/>
            <path d="M222.87,62.697C223.137,62.162 223.789,61.945 224.324,62.213C224.859,62.481 225.075,63.132 224.807,63.667C224.54,64.202 223.888,64.419 223.353,64.151C222.819,63.883 222.602,63.231 222.87,62.697Z" style="fill:#a0811b;"/>
        </g>
    </g>
</svg>
