<?xml version="1.0" encoding="UTF-8" standalone="no"?>
<!DOCTYPE svg PUBLIC "-//W3C//DTD SVG 1.1//EN" "http://www.w3.org/Graphics/SVG/1.1/DTD/svg11.dtd">
<svg width="100%" height="100%" viewBox="0 0 240 240" version="1.1" xmlns="http://www.w3.org/2000/svg" xmlns:xlink="http://www.w3.org/1999/xlink" xml:space="preserve" xmlns:serif="http://www.serif.com/" style="fill-rule:evenodd;clip-rule:evenodd;stroke-linecap:round;stroke-linejoin:round;stroke-miterlimit:1.5;">
    <g id="HeadAccessoryGroup">
        <circle id="headAccessMatingPin" cx="21.602" cy="231.808" r="2.591" style="fill:#ebebeb;"/>
        <path d="M167.358,28.727C161.571,42.636 149.996,70.454 148.217,87.231C146.704,101.49 153.357,120.089 156.683,129.389" style="fill:none;stroke:#aeaeae;stroke-width:2.5px;"/>
        <path d="M22.039,234.447C18.147,175.333 10.364,57.104 34.691,21.989C59.018,-13.125 131.674,11.467 168.002,23.762" style="fill:none;stroke:#aeaeae;stroke-width:2.5px;"/>
        <path d="M133.992,91.825C133.992,91.825 134.397,92.427 134.18,92.103C134.118,92.009 134.055,91.917 133.992,91.825ZM142.983,16.271C144.872,17.562 157.029,25.439 166.144,20.892C166.418,20.755 166.683,20.62 166.938,20.488C168.816,21.778 170.476,23.333 171.875,25.159C172.371,25.806 172.825,26.475 173.238,27.165C169.125,27.615 165.784,28.569 165.706,30.477C165.506,35.344 172.003,47.509 172.409,48.263L172.428,48.3C152.647,56.413 159.245,73.904 159.245,73.904L159.399,74.057C159.344,74.063 159.288,74.068 159.232,74.074C137.121,76.321 134.114,90.068 133.845,91.612C121.944,74.494 109.587,91.842 109.587,91.842C109.587,91.842 98.787,82.227 92.61,83.363L92.574,83.37C92.574,83.37 99.048,78.879 101.187,69.231L101.212,69.118C101.212,69.118 114.687,69.478 113.573,52.69L113.566,52.591C113.566,52.591 129.85,54.716 124.412,33.169L124.379,33.042C124.379,33.042 142.025,35.52 142.725,16.309L142.937,16.278L142.983,16.271Z" style="fill:#427950;"/>
        <path d="M131.659,62.439C137.964,56.507 166.938,20.488 166.938,20.488C166.938,20.488 170.442,22.23 171.493,23.343C172.45,24.358 173.238,27.165 173.238,27.165C173.238,27.165 168.195,27.468 166.667,28.959C162.2,33.316 152.614,47.755 146.435,53.307C136.342,62.377 128.495,67.347 120.177,72.037C114.39,75.299 108.498,78.429 104.339,79.519L104.143,79.569C104.143,79.569 121.193,72.286 131.659,62.439Z" style="fill:#1a5829;"/>
        <path d="M189.644,73.332C189.644,73.332 189.335,73.779 189.5,73.539C189.548,73.469 189.595,73.401 189.644,73.332ZM184.099,16.337C182.682,17.281 173.565,23.031 166.884,19.474C166.683,19.367 166.489,19.262 166.302,19.159C164.892,20.102 163.641,21.248 162.578,22.602C162.202,23.081 161.856,23.578 161.54,24.091C164.578,24.49 167.037,25.257 167.067,26.694C167.143,30.361 162.154,39.42 161.843,39.982L161.828,40.009C176.354,46.406 171.212,59.473 171.212,59.473L171.095,59.586C171.135,59.591 171.177,59.596 171.218,59.601C187.555,61.618 189.579,72.008 189.755,73.174C198.818,60.466 207.712,73.705 207.712,73.705C207.712,73.705 215.849,66.627 220.405,67.573L220.432,67.579C220.432,67.579 215.705,64.104 214.264,56.811L214.247,56.725C214.247,56.725 204.265,56.798 205.337,44.18L205.343,44.105C205.343,44.105 193.257,45.465 197.6,29.328L197.626,29.233C197.626,29.233 184.525,30.839 184.29,16.37L184.134,16.343L184.099,16.337Z" style="fill:#427950;"/>
        <path d="M191.803,51.251C187.223,46.693 166.302,19.159 166.302,19.159C166.302,19.159 163.682,20.418 162.888,21.24C162.164,21.99 161.54,24.091 161.54,24.091C161.54,24.091 165.269,24.394 166.378,25.538C169.621,28.882 176.506,39.891 180.998,44.161C188.337,51.135 194.074,54.991 200.163,58.643C204.399,61.184 208.715,63.625 211.778,64.507L211.923,64.548C211.923,64.548 199.407,58.815 191.803,51.251Z" style="fill:#1a5829;"/>
        <path d="M167.837,10.249C171.328,10.284 174.135,13.182 174.1,16.718C174.065,20.253 171.202,23.096 167.711,23.062C164.22,23.027 161.414,20.129 161.448,16.593C161.483,13.058 164.346,10.215 167.837,10.249Z" style="fill:#de0e16;"/>
        <path d="M161.21,23.507C164.701,23.542 167.507,26.44 167.473,29.976C167.438,33.511 164.575,36.354 161.084,36.319C157.593,36.285 154.786,33.386 154.821,29.851C154.856,26.315 157.719,23.473 161.21,23.507Z" style="fill:#de0e16;"/>
        <path d="M176.213,22.264C179.704,22.298 182.51,25.197 182.475,28.732C182.44,32.268 179.577,35.11 176.086,35.076C172.595,35.041 169.789,32.143 169.824,28.608C169.859,25.072 172.721,22.229 176.213,22.264Z" style="fill:#de0e16;"/>
        <path d="M45.692,226.532L6.721,226.532L5.328,228.546L7.357,230.655L4.447,232.255L7.748,234.355L6.721,235.477L45.692,235.477L47.242,233.79L44.011,231.13L46.442,229.34L45.692,226.532Z" style="fill:#040e06;"/>
        <path d="M229.527,94.111L106.805,102.549C106.805,102.549 112.565,166.784 133.891,178.441C155.217,190.098 248.739,180.545 235.639,163.756C224.505,149.486 229.527,94.111 229.527,94.111Z" style="fill:#c99d0a;"/>
        <path d="M229.672,92.829L106.95,101.266C106.95,101.266 112.71,165.502 134.036,177.158C155.362,188.815 248.884,179.263 235.784,162.474C224.65,148.203 229.672,92.829 229.672,92.829Z" style="fill:#edcc62;"/>
        <g transform="matrix(0.965888,-0.258961,0.252723,0.96756,-53.7811,23.367)">
            <text x="144.059px" y="159.999px" style="font-family:'Chalkboard-Bold', 'Chalkboard', cursive;font-weight:700;font-size:20px;fill:#2d2d2d;">Smo<tspan x="182.401px 192.92px 203.241px 214.556px 225.981px " y="159.999px 159.999px 159.999px 159.999px 159.999px ">oches</tspan></text>
            <text x="175.782px" y="192.264px" style="font-family:'Chalkboard-Bold', 'Chalkboard', cursive;font-weight:700;font-size:20px;fill:#2d2d2d;">Pls</text>
        </g>
        <path d="M168.844,11.212C168.844,11.212 172.158,11.129 172.838,14.874" style="fill:none;stroke:#dc8080;stroke-width:0.65px;"/>
        <path d="M176.975,23.182C176.975,23.182 180.289,23.099 180.969,26.843" style="fill:none;stroke:#dc8080;stroke-width:0.65px;"/>
        <path d="M161.97,24.522C161.97,24.522 165.283,24.439 165.963,28.184" style="fill:none;stroke:#dc8080;stroke-width:0.65px;"/>
    </g>
</svg>
