<?xml version="1.0" encoding="UTF-8" standalone="no"?>
<!DOCTYPE svg PUBLIC "-//W3C//DTD SVG 1.1//EN" "http://www.w3.org/Graphics/SVG/1.1/DTD/svg11.dtd">
<svg width="100%" height="100%" viewBox="0 0 240 240" version="1.1" xmlns="http://www.w3.org/2000/svg" xmlns:xlink="http://www.w3.org/1999/xlink" xml:space="preserve" xmlns:serif="http://www.serif.com/" style="fill-rule:evenodd;clip-rule:evenodd;">
    <g id="HeadAccessoryGroup">
        <circle id="headAccessMatingPin" cx="121.741" cy="220.626" r="1.868" style="fill:#ebebeb;"/>
        <path id="path850-4" d="M107.491,214.602C100.559,219.837 93.628,225.072 85.259,229.517C76.89,233.961 67.084,237.615 60.023,238.397C52.961,239.179 48.582,237.059 46.493,230.028C44.405,222.996 44.569,211.675 44.483,198.747C44.398,185.82 44.072,173.55 46.069,166.33C48.066,159.111 52.417,156.93 59.489,157.612C66.56,158.295 76.413,161.81 84.92,166.479C93.426,171.149 100.586,176.971 107.745,182.794" style="fill:#ff58da;fill-rule:nonzero;"/>
        <path id="path850-4-3" d="M132.727,216.756C139.727,221.893 146.727,227.03 155.154,231.357C163.581,235.683 173.434,239.199 180.506,239.881C187.577,240.564 191.928,238.382 193.923,231.322C195.918,224.262 195.605,212.944 195.519,200.016C195.434,187.089 195.598,174.815 193.505,167.625C191.413,160.434 187.033,158.314 179.972,159.096C172.91,159.878 163.104,163.532 154.66,168.32C146.216,173.109 139.134,179.032 132.052,184.954" style="fill:#ff58da;fill-rule:nonzero;"/>
        <path id="rect825" d="M135.724,189.412C135.671,181.348 129.081,174.847 121.017,174.903C112.953,174.96 106.449,181.553 106.503,189.617L106.633,209.303C106.686,217.367 113.276,223.868 121.34,223.811C129.404,223.754 135.908,217.161 135.855,209.097L135.724,189.412Z" style="fill:#ff58da;"/>
        <path id="path894" d="M45.219,222.705L46.058,228.407L47.578,233.14L50.308,236.368L54.518,238.366L59.403,238.469L65.71,237.283L73.668,234.786L81.601,231.365L90.098,226.778L96.956,222.321L102.899,218.126L107.491,214.602C107.491,214.602 107.109,214.258 106.653,214.537C106.197,214.816 102.905,216.177 101.311,217.37C96.861,219.487 86.907,223.061 84.318,224.004C81.389,225.304 71.515,228.035 70.922,228.421C69.928,229.068 56.805,231.582 56.805,231.582C56.805,231.582 50.684,232.015 48.639,228.745C47.858,227.922 45.219,222.705 45.219,222.705L45.219,222.705Z" style="fill:#df00ae;fill-rule:nonzero;"/>
        <path id="path894-5" d="M195.1,223.982L194.337,229.695L192.88,234.449L190.192,237.715L186.009,239.772L181.126,239.944L174.804,238.847L166.814,236.463L158.837,233.153L150.279,228.686L143.364,224.326L137.365,220.215L132.727,216.756C132.727,216.756 133.105,216.407 133.564,216.679C134.024,216.952 137.333,218.267 138.943,219.437C143.421,221.491 153.421,224.925 156.022,225.831C158.968,227.09 168.877,229.681 169.475,230.059C170.478,230.692 183.632,233.021 183.632,233.021C183.632,233.021 189.437,233.621 191.439,230.322C192.673,229.256 195.1,223.982 195.1,223.982L195.1,223.982Z" style="fill:#df00ae;fill-rule:nonzero;"/>
        <path id="path917" d="M106.427,195.003C102.533,194.663 98.639,194.323 94.168,194.281C89.696,194.239 84.649,194.495 81.437,195.234C78.225,195.973 76.85,197.195 76.199,198.503C75.548,199.812 75.622,201.208 76.98,202.172C78.337,203.137 80.978,203.669 85.047,203.677C89.115,203.685 94.613,203.169 98.438,202.765C102.263,202.362 104.416,202.071 106.569,201.78" style="fill:#df00ae;fill-rule:nonzero;stroke:#df00ae;stroke-width:0.44px;"/>
        <path id="path917-6" d="M135.933,195.304C139.822,194.909 143.711,194.515 148.181,194.41C152.652,194.305 157.703,194.49 160.924,195.183C164.145,195.877 165.536,197.079 166.204,198.379C166.872,199.678 166.817,201.075 165.472,202.058C164.127,203.041 161.494,203.611 157.426,203.676C153.358,203.742 147.854,203.303 144.024,202.953C140.194,202.603 138.037,202.343 135.881,202.083" style="fill:#df00ae;fill-rule:nonzero;stroke:#df00ae;stroke-width:0.44px;"/>
        <path id="path957" d="M106.635,210.745L108,215.603L108.56,216.368L110.902,219.636L114.237,222.104L117.875,223.511L122.464,223.855L126.76,222.753L129.798,221.089L133.978,216.662L135.788,212.147L135.743,211.085C135.743,211.085 133.848,214.049 132.619,215.287C130.96,216.694 127.694,218.221 125.485,218.749C123.961,219.173 118.962,219.328 117.08,218.971C115.266,218.711 114.478,217.984 111.597,216.59C111.194,216.39 106.635,210.745 106.635,210.745L106.635,210.745Z" style="fill:#df00ae;fill-rule:nonzero;"/>
    </g>
</svg>
