<?xml version="1.0" encoding="UTF-8" standalone="no"?>
<!DOCTYPE svg PUBLIC "-//W3C//DTD SVG 1.1//EN" "http://www.w3.org/Graphics/SVG/1.1/DTD/svg11.dtd">
<svg width="100%" height="100%" viewBox="0 0 240 240" version="1.1" xmlns="http://www.w3.org/2000/svg" xmlns:xlink="http://www.w3.org/1999/xlink" xml:space="preserve" xmlns:serif="http://www.serif.com/" style="fill-rule:evenodd;clip-rule:evenodd;stroke-linejoin:round;stroke-miterlimit:2;">
    <g id="HeadAccessoryGroup">
        <circle id="headAccessMatingPin" cx="120.018" cy="216.176" r="2.591" style="fill:#ebebeb;"/>
        <path d="M224.236,22.584C196.86,43.641 163.988,74.479 164.741,116.063C165.564,161.526 206.245,177.93 224.217,217.366L14.45,217.366C49.662,111.305 93.103,57.644 111.384,42.576C129.675,27.499 217.045,6.673 224.236,22.584Z" style="fill:#ac1f1f;"/>
        <path d="M201.096,211.578C203.398,207.55 206.996,204.955 211.038,204.955C215.201,204.955 218.895,207.708 221.184,211.945C223.121,209.807 225.591,208.525 228.279,208.525C234.495,208.525 239.542,215.381 239.542,223.824C239.542,232.268 234.495,239.123 228.279,239.123C224.975,239.123 222.001,237.187 219.94,234.104C217.662,237.204 214.514,239.123 211.038,239.123C207.707,239.123 204.676,237.36 202.424,234.484C200.377,237.345 197.514,239.123 194.347,239.123C191.411,239.123 188.735,237.594 186.729,235.089C184.539,237.605 181.707,239.123 178.615,239.123C175.284,239.123 172.253,237.36 170.001,234.484C167.955,237.345 165.091,239.123 161.925,239.123C159.751,239.123 157.721,238.286 156,236.835C154.15,238.29 152.002,239.123 149.712,239.123C146.381,239.123 143.35,237.36 141.098,234.484C139.051,237.345 136.188,239.123 133.021,239.123C130.854,239.123 128.829,238.29 127.111,236.847C125.265,238.295 123.122,239.123 120.838,239.123C117.507,239.123 114.476,237.36 112.224,234.484C110.178,237.345 107.314,239.123 104.148,239.123C101.637,239.123 99.317,238.005 97.443,236.115C95.417,238.012 92.961,239.123 90.316,239.123C86.985,239.123 83.954,237.36 81.702,234.484C79.656,237.345 76.793,239.123 73.626,239.123C71.504,239.123 69.519,238.325 67.824,236.937C66.004,238.329 63.903,239.123 61.667,239.123C58.336,239.123 55.305,237.36 53.053,234.484C51.006,237.345 48.143,239.123 44.977,239.123C41.834,239.123 38.99,237.372 36.946,234.548C34.7,237.387 31.69,239.123 28.383,239.123C25.052,239.123 22.021,237.36 19.769,234.484C17.723,237.345 14.86,239.123 11.693,239.123C5.476,239.123 0.429,232.268 0.429,223.824C0.429,215.381 5.476,208.525 11.693,208.525C14.224,208.525 16.561,209.661 18.442,211.578C20.743,207.55 24.342,204.955 28.383,204.955C32.404,204.955 35.987,207.523 38.29,211.516C40.161,209.637 42.474,208.525 44.977,208.525C47.507,208.525 49.844,209.661 51.725,211.578C54.027,207.55 57.626,204.955 61.667,204.955C64.888,204.955 67.828,206.603 70.054,209.312C71.176,208.802 72.378,208.525 73.626,208.525C76.157,208.525 78.494,209.661 80.374,211.578C82.676,207.55 86.275,204.955 90.316,204.955C93.816,204.955 96.983,206.9 99.264,210.037C100.742,209.068 102.398,208.525 104.148,208.525C106.678,208.525 109.015,209.661 110.896,211.578C113.198,207.55 116.797,204.955 120.838,204.955C124.089,204.955 127.054,206.634 129.287,209.388C130.456,208.829 131.713,208.525 133.021,208.525C135.552,208.525 137.889,209.661 139.77,211.578C142.071,207.55 145.67,204.955 149.712,204.955C152.967,204.955 155.935,206.638 158.169,209.398C159.344,208.833 160.608,208.525 161.925,208.525C164.456,208.525 166.792,209.661 168.673,211.578C170.975,207.55 174.574,204.955 178.615,204.955C182.459,204.955 185.902,207.302 188.21,210.997C189.976,209.434 192.084,208.525 194.347,208.525C196.878,208.525 199.215,209.661 201.096,211.578Z" style="fill:#c8c8c8;"/>
        <path d="M201.096,209.743C203.398,205.714 206.996,203.12 211.038,203.12C215.201,203.12 218.895,205.873 221.184,210.11C223.121,207.972 225.591,206.69 228.279,206.69C234.495,206.69 239.542,213.545 239.542,221.989C239.542,230.433 234.495,237.288 228.279,237.288C224.975,237.288 222.001,235.352 219.94,232.269C217.662,235.369 214.514,237.288 211.038,237.288C207.707,237.288 204.676,235.525 202.424,232.648C200.377,235.509 197.514,237.288 194.347,237.288C191.411,237.288 188.735,235.758 186.729,233.254C184.539,235.77 181.707,237.288 178.615,237.288C175.284,237.288 172.253,235.525 170.001,232.648C167.955,235.509 165.091,237.288 161.925,237.288C159.751,237.288 157.721,236.45 156,235C154.15,236.455 152.002,237.288 149.712,237.288C146.381,237.288 143.35,235.525 141.098,232.648C139.051,235.509 136.188,237.288 133.021,237.288C130.854,237.288 128.829,236.455 127.111,235.012C125.265,236.46 123.122,237.288 120.838,237.288C117.507,237.288 114.476,235.525 112.224,232.648C110.178,235.509 107.314,237.288 104.148,237.288C101.637,237.288 99.317,236.17 97.443,234.28C95.417,236.177 92.961,237.288 90.316,237.288C86.985,237.288 83.954,235.525 81.702,232.648C79.656,235.509 76.793,237.288 73.626,237.288C71.504,237.288 69.519,236.49 67.824,235.102C66.004,236.494 63.903,237.288 61.667,237.288C58.336,237.288 55.305,235.525 53.053,232.648C51.006,235.509 48.143,237.288 44.977,237.288C41.834,237.288 38.99,235.536 36.946,232.713C34.7,235.551 31.69,237.288 28.383,237.288C25.052,237.288 22.021,235.525 19.769,232.648C17.723,235.509 14.86,237.288 11.693,237.288C5.476,237.288 0.429,230.433 0.429,221.989C0.429,213.545 5.476,206.69 11.693,206.69C14.224,206.69 16.561,207.826 18.442,209.743C20.743,205.714 24.342,203.12 28.383,203.12C32.404,203.12 35.987,205.688 38.29,209.68C40.161,207.801 42.474,206.69 44.977,206.69C47.507,206.69 49.844,207.826 51.725,209.743C54.027,205.714 57.626,203.12 61.667,203.12C64.888,203.12 67.828,204.768 70.054,207.477C71.176,206.967 72.378,206.69 73.626,206.69C76.157,206.69 78.494,207.826 80.374,209.743C82.676,205.714 86.275,203.12 90.316,203.12C93.816,203.12 96.983,205.065 99.264,208.201C100.742,207.233 102.398,206.69 104.148,206.69C106.678,206.69 109.015,207.826 110.896,209.743C113.198,205.714 116.797,203.12 120.838,203.12C124.089,203.12 127.054,204.798 129.287,207.552C130.456,206.994 131.713,206.69 133.021,206.69C135.552,206.69 137.889,207.826 139.77,209.743C142.071,205.714 145.67,203.12 149.712,203.12C152.967,203.12 155.935,204.803 158.169,207.563C159.344,206.998 160.608,206.69 161.925,206.69C164.456,206.69 166.792,207.826 168.673,209.743C170.975,205.714 174.574,203.12 178.615,203.12C182.459,203.12 185.902,205.467 188.21,209.162C189.976,207.599 192.084,206.69 194.347,206.69C196.878,206.69 199.215,207.826 201.096,209.743Z" style="fill:#fff;"/>
        <path d="M225.336,10.098C226.052,9.367 226.932,8.936 227.884,8.936C230.226,8.936 232.138,11.546 232.229,14.81C234.619,14.825 236.557,17.561 236.557,20.928C236.557,23.554 235.379,25.795 233.728,26.663C234.261,27.679 234.576,28.934 234.576,30.293C234.576,33.67 232.628,36.411 230.228,36.411C229.751,36.411 229.291,36.303 228.862,36.103C228.458,36.593 228.026,37.043 227.57,37.447C227.186,39.368 225.858,40.788 224.282,40.788C223.467,40.788 222.719,40.409 222.133,39.777C222.011,39.783 221.888,39.786 221.764,39.786C221.505,39.786 221.248,39.773 220.994,39.748C220.33,41.821 218.758,43.28 216.927,43.28C214.555,43.28 212.618,40.833 212.526,37.774C211.258,36.766 210.411,34.948 210.411,32.874C210.411,31.44 210.816,30.128 211.485,29.122C211.408,28.736 211.342,28.343 211.288,27.946C209.29,27.088 207.839,24.548 207.839,21.551C207.839,18.334 209.51,15.643 211.737,14.994C212.214,11.97 214.195,9.7 216.564,9.7C217.718,9.7 218.78,10.24 219.622,11.143C219.674,11.128 219.727,11.114 219.78,11.101C220.484,9.789 221.624,8.936 222.91,8.936C223.828,8.936 224.672,9.371 225.336,10.098Z" style="fill:#d2d2d2;"/>
        <path d="M225.336,8.91C226.052,8.179 226.932,7.748 227.884,7.748C230.226,7.748 232.138,10.359 232.229,13.622C234.619,13.637 236.557,16.373 236.557,19.741C236.557,22.366 235.379,24.607 233.728,25.475C234.261,26.491 234.576,27.746 234.576,29.105C234.576,32.482 232.628,35.223 230.228,35.223C229.751,35.223 229.291,35.115 228.862,34.915C228.458,35.406 228.026,35.855 227.57,36.259C227.186,38.181 225.858,39.6 224.282,39.6C223.467,39.6 222.719,39.221 222.133,38.589C222.011,38.595 221.888,38.598 221.764,38.598C221.505,38.598 221.248,38.585 220.994,38.56C220.33,40.634 218.758,42.092 216.927,42.092C214.555,42.092 212.618,39.645 212.526,36.586C211.258,35.578 210.411,33.76 210.411,31.686C210.411,30.252 210.816,28.94 211.485,27.934C211.408,27.548 211.342,27.156 211.288,26.758C209.29,25.9 207.839,23.36 207.839,20.363C207.839,17.146 209.51,14.455 211.737,13.807C212.214,10.782 214.195,8.512 216.564,8.512C217.718,8.512 218.78,9.052 219.622,9.955C219.674,9.941 219.727,9.926 219.78,9.913C220.484,8.601 221.624,7.748 222.91,7.748C223.828,7.748 224.672,8.183 225.336,8.91Z" style="fill:#fff;"/>
    </g>
</svg>
